<svg width="124" height="124" fill="none" xmlns="http://www.w3.org/2000/svg"><path fill-rule="evenodd" clip-rule="evenodd" d="M62 98c19.882 0 36-16.118 36-36S81.882 26 62 26 26 42.118 26 62s16.118 36 36 36zM51.507 71.568c-2.143 0-3.9-.504-5.269-1.513-1.35-1.027-2.026-2.486-2.026-4.377 0-.396.045-.883.135-1.46a89.628 89.628 0 0 1 1-4.674c1.225-4.953 4.386-7.43 9.484-7.43 1.387 0 2.63.234 3.728.702 1.1.45 1.964 1.135 2.594 2.054.63.9.946 1.982.946 3.242 0 .379-.045.856-.135 1.432a61.145 61.145 0 0 1-.973 4.675c-.63 2.468-1.72 4.314-3.27 5.539-1.548 1.207-3.62 1.81-6.214 1.81zm.379-3.89c1.008 0 1.864-.298 2.566-.892.721-.595 1.234-1.504 1.54-2.73.415-1.692.73-3.17.946-4.43a6.2 6.2 0 0 0 .108-1.162c0-1.64-.855-2.46-2.566-2.46-1.01 0-1.874.298-2.594.892-.703.595-1.207 1.505-1.514 2.73-.324 1.206-.648 2.684-.972 4.43a5.77 5.77 0 0 0-.108 1.136c0 1.657.864 2.485 2.593 2.485zm10.994 3.43c.108.127.261.19.46.19h3.674c.18 0 .352-.063.514-.19a.775.775 0 0 0 .297-.486l1.243-5.917h3.647c2.36 0 4.216-.495 5.567-1.486 1.369-.99 2.278-2.522 2.728-4.593.109-.487.163-.955.163-1.405 0-1.568-.613-2.765-1.838-3.594-1.207-.829-2.81-1.243-4.81-1.243h-7.187a.824.824 0 0 0-.513.19.773.773 0 0 0-.297.486l-3.729 17.563a.646.646 0 0 0 .081.486zm11.997-10.753c-.558.414-1.216.621-1.972.621h-3.108l1.027-4.836h3.242c.739 0 1.261.144 1.568.432.306.27.459.667.459 1.189 0 .234-.027.504-.081.81-.18.775-.559 1.37-1.135 1.784z" fill="#FF0420"/></svg>