<svg width="124" height="124" fill="none" xmlns="http://www.w3.org/2000/svg"><path fill-rule="evenodd" clip-rule="evenodd" d="M37.17 35.94c14.384-13.71 37.162-13.172 50.873 1.211.892.942 1.75 1.918 2.524 2.944L62 68.678 33.436 40.095a38.164 38.164 0 0 1 2.523-2.944c.387-.404.79-.807 1.211-1.211zm46.97 3.937c-5.888-5.922-13.727-9.169-22.139-9.169-8.411 0-16.25 3.247-22.139 9.169l22.14 22.139 22.138-22.14zm8.664 3.465L87 49.146c4.677 5.602 3.937 13.946-1.665 18.623a13.215 13.215 0 0 1-16.958 0l-6.376 6.376-6.359-6.36c-5.602 4.678-13.946 3.937-18.623-1.665a13.215 13.215 0 0 1 0-16.957l-2.978-2.978-2.826-2.843A35.93 35.93 0 0 0 26 61.999C26 81.883 42.117 98 62.001 98c19.885 0 36.002-16.117 36.002-36.001a35.913 35.913 0 0 0-5.199-18.657zm-8.563 8.563a9.368 9.368 0 0 1 1.952 5.72c0 2.069-.69 4.088-1.952 5.72-3.163 4.088-9.034 4.845-13.122 1.682l13.122-13.122zM52.883 65.044a9.368 9.368 0 0 1-5.72 1.951c-2.069 0-4.07-.69-5.72-1.935-4.088-3.162-4.845-9.05-1.682-13.138l13.122 13.122z" fill="#04795B"/></svg>