<svg width="124" height="124" fill="none" xmlns="http://www.w3.org/2000/svg"><path d="m70.177 58.99 5.288-8.973 14.252 22.198.007 4.26-.047-29.314a2.208 2.208 0 0 0-1.021-1.76l-25.66-14.759a2.262 2.262 0 0 0-1.96.01c-.08.04-.157.084-.23.132l-.089.056-24.906 14.434-.097.043a2.2 2.2 0 0 0-1.287 1.875l.04 23.889 13.275-20.576c1.671-2.729 5.313-3.607 8.693-3.56l3.968.105-23.378 37.49 2.756 1.587 23.657-39.039 10.457-.038L50.3 87.074l9.833 5.656 1.175.676a2.257 2.257 0 0 0 1.584.031l26.02-15.079-4.975 2.883-13.759-22.252zm2.018 29.055-9.932-15.588 6.063-10.287 13.043 20.558-9.174 5.317z" fill="#2D374B"/><path d="m62.263 72.459 9.932 15.587 9.174-5.317-13.043-20.558-6.063 10.288zM89.725 76.476l-.006-4.26-14.253-22.198-5.287 8.972 13.758 22.252 4.975-2.883c.488-.396.783-.977.814-1.605v-.278z" fill="#28A0F0"/><path d="m30 80.493 7.025 4.048 23.377-37.49-3.967-.105c-3.38-.048-7.022.831-8.694 3.56L34.466 71.082 30 77.944v2.55zM73.894 47.051l-10.456.038-23.657 39.04 8.269 4.76 2.248-3.814 23.596-40.024z" fill="#fff"/><path d="M94.13 46.997c-.087-2.187-1.271-4.189-3.126-5.354l-25.996-14.95c-1.834-.924-4.126-.925-5.964 0-.217.11-25.28 14.645-25.28 14.645-.347.166-.681.364-.995.59A6.61 6.61 0 0 0 30 46.983v30.96l4.466-6.862-.039-23.889a2.198 2.198 0 0 1 .919-1.66c.118-.085 25.609-14.84 25.69-14.88.6-.302 1.36-.305 1.96-.01l25.66 14.76a2.208 2.208 0 0 1 1.021 1.758v29.593c-.03.627-.279 1.209-.767 1.605l-4.975 2.883-2.566 1.487-9.175 5.317-9.304 5.392a2.255 2.255 0 0 1-1.584-.031l-11.008-6.332-2.248 3.814 9.892 5.696c.327.186.619.35.858.485.37.208.623.347.712.39.703.341 1.715.54 2.626.54.836 0 1.65-.153 2.422-.456l27.024-15.65c1.551-1.202 2.464-3.014 2.546-4.977v-29.92z" fill="#96BEDC"/></svg>