<svg width="124" height="124" viewBox="0 0 124 124" fill="none" xmlns="http://www.w3.org/2000/svg">
<path fill-rule="evenodd" clip-rule="evenodd" d="M61.7274 26L41.6329 37.0283L49.0206 41.1025L61.7274 34.1483L74.434 41.1025L81.8217 37.0283L61.7274 26ZM74.434 46.8625L81.8217 50.9366V59.0849L69.1148 66.039V79.9475L61.7274 84.0217L54.3397 79.9475V66.039L41.6329 59.0849L41.6329 50.9366L49.0206 46.8625L61.7274 53.8165L74.434 46.8625ZM81.8217 64.845V72.9933L74.434 77.0676V68.9189L81.8217 64.845ZM74.3601 82.8273L87.0671 75.8732V61.9648L94.4545 57.8908L94.4545 79.9475L74.3601 90.9756V82.8273ZM87.0671 48.0566L79.6793 43.9825L87.0671 39.9083L94.4545 43.9825V52.1308L87.0671 56.205V48.0566ZM54.3397 93.926V85.7777L61.7274 89.8517L69.1148 85.7777L69.1148 93.926L61.7274 98L54.3397 93.926ZM49.0206 77.0676L41.6329 72.9933V64.845L49.0206 68.9189V77.0676ZM61.7274 48.0566L54.3397 43.9825L61.7274 39.9083L69.1148 43.9825L61.7274 48.0566ZM43.7753 43.9825L36.3876 48.0566L36.3876 56.205L29 52.1308V43.9825L36.3876 39.9083L43.7753 43.9825ZM29 57.8908L36.3876 61.9648V75.8732L49.0944 82.8273V90.9756L29 79.9475L29 57.8908Z" fill="#F0B90B"/>
</svg>
