<svg width="124" height="124" fill="none" xmlns="http://www.w3.org/2000/svg"><path d="M80.517 49.363c-1.316-.752-3.008-.752-4.512 0l-10.527 6.204-7.144 3.947-10.34 6.204c-1.315.752-3.007.752-4.511 0L35.4 60.83c-1.316-.752-2.256-2.256-2.256-3.947v-9.4c0-1.504.752-3.008 2.256-3.948l8.083-4.7c1.316-.751 3.008-.751 4.512 0l8.083 4.888c1.316.752 2.256 2.256 2.256 3.948v6.204l7.144-4.136v-6.392c0-1.504-.752-3.008-2.256-3.947l-15.04-8.836c-1.315-.752-3.007-.752-4.511 0l-15.415 9.023C26.752 40.34 26 41.843 26 43.347v17.671c0 1.504.752 3.008 2.256 3.948l15.227 8.836c1.316.751 3.008.751 4.512 0l10.34-6.016 7.143-4.136 10.34-6.015c1.315-.752 3.007-.752 4.511 0l8.084 4.7c1.316.751 2.255 2.255 2.255 3.947v9.4c0 1.503-.752 3.007-2.256 3.947l-7.895 4.7c-1.316.752-3.008.752-4.512 0l-8.083-4.7c-1.316-.752-2.256-2.256-2.256-3.948v-6.015l-7.144 4.136v6.203c0 1.504.752 3.008 2.256 3.948l15.227 8.835c1.316.752 3.008.752 4.512 0l15.227-8.835C97.06 83.201 98 81.697 98 80.005V62.146c0-1.504-.752-3.008-2.256-3.948l-15.227-8.835z" fill="#8247E5"/></svg>