<svg width="124" height="124" fill="none" xmlns="http://www.w3.org/2000/svg"><path fill-rule="evenodd" clip-rule="evenodd" d="M98 62c0 19.882-16.118 36-36 36S26 81.882 26 62s16.118-36 36-36 36 16.118 36 36zM72.8 50.3l-8.1 4.725 8.1 4.725V50.3zM62 81.575l10.8-6.3V64.25L62 70.55l-10.8-6.3v11.025l10.8 6.3zm-2.7-26.55L51.2 50.3v9.45l8.1-4.725zM71.45 62l-8.1-4.725v9.45L71.45 62zm-18.9 0 8.1 4.725v-9.45L52.55 62zM62 53.45l9.45-5.4L62 42.425l-9.45 5.625 9.45 5.4zM48.5 76.625V47.15L62 39.5l13.5 7.65v29.475L62 84.275l-13.5-7.65z" fill="#13B5EC"/></svg>