<svg width="124" height="124" fill="none" xmlns="http://www.w3.org/2000/svg"><path d="M62 98c19.882 0 36-16.118 36-36S81.882 26 62 26 26 42.118 26 62s16.118 36 36 36z" fill="#627EEA"/><path d="M63.12 35v19.958l16.868 7.537L63.12 35z" fill="#fff" fill-opacity=".602"/><path d="M63.12 35 46.25 62.495l16.87-7.537V35z" fill="#fff"/><path d="M63.12 75.428v13.56L80 65.637l-16.88 9.792z" fill="#fff" fill-opacity=".602"/><path d="M63.12 88.989V75.426l-16.87-9.79 16.87 23.353z" fill="#fff"/><path d="m63.12 72.29 16.868-9.795-16.868-7.533v17.327z" fill="#fff" fill-opacity=".2"/><path d="m46.25 62.495 16.87 9.794V54.962l-16.87 7.533z" fill="#fff" fill-opacity=".602"/></svg>