<svg width="124" height="124" fill="none" xmlns="http://www.w3.org/2000/svg"><path fill-rule="evenodd" clip-rule="evenodd" d="M33 26a7 7 0 0 0-7 7v58a7 7 0 0 0 7 7h58a7 7 0 0 0 7-7V33a7 7 0 0 0-7-7H33zm25.831 18.684c1.36-2.524 4.98-2.524 6.34 0l16.159 30.01C82.621 77.092 80.884 80 78.16 80H45.842c-2.724 0-4.461-2.909-3.17-5.307l16.16-30.01zm9.51-1.707c-2.719-5.048-9.96-5.048-12.68 0l-16.159 30.01c-2.582 4.797.892 10.614 6.34 10.614H78.16c5.448 0 8.923-5.817 6.34-10.614l-16.16-30.01z" fill="#6DD24B"/></svg>