<svg width="124" height="124" fill="none" xmlns="http://www.w3.org/2000/svg"><path fill-rule="evenodd" clip-rule="evenodd" d="M98 62c0 19.882-16.118 36-36 36S26 81.882 26 62s16.118-36 36-36 36 16.118 36 36zM51.799 76.326h-6.987c-1.468 0-2.193 0-2.635-.283a1.776 1.776 0 0 1-.805-1.388c-.027-.522.336-1.159 1.061-2.432l17.25-30.407c.735-1.291 1.106-1.937 1.575-2.176a1.78 1.78 0 0 1 1.61 0c.468.239.84.885 1.574 2.176l3.546 6.19.018.032c.793 1.385 1.195 2.088 1.37 2.825a5.25 5.25 0 0 1 0 2.459c-.176.742-.574 1.45-1.379 2.856l-9.061 16.018-.024.041c-.798 1.397-1.202 2.105-1.763 2.639A5.275 5.275 0 0 1 55 76.123c-.734.203-1.556.203-3.201.203zm17.643 0h10.011c1.477 0 2.22 0 2.662-.291a1.77 1.77 0 0 0 .805-1.398c.026-.504-.329-1.117-1.024-2.316l-.073-.125-5.014-8.578-.057-.097c-.705-1.191-1.06-1.793-1.517-2.026a1.761 1.761 0 0 0-1.601 0c-.46.24-.831.867-1.565 2.132l-4.997 8.578-.017.03c-.732 1.262-1.097 1.893-1.07 2.411.034.566.326 1.088.804 1.397.433.283 1.176.283 2.653.283z" fill="#E84142"/></svg>