<svg width="153" height="152" fill="none" xmlns="http://www.w3.org/2000/svg"><path fill="#fff" d="M0 0h153v152H0z"/><path fill-rule="evenodd" clip-rule="evenodd" d="M81.588 53.77s.074-1.512.074-3.965c0-.074 0-.47.05-.198v-1.289c0-.322-.05-.347-.37-.297l-.581.12c-2.067.431-4.117.858-6.187 1.243-.516.099-.812.322-1.058.793-.049.091-.096.183-.142.273v.001c-.118.229-.234.455-.375.667-.196.298-.147.421.197.52 2.658.794 5.34 1.611 7.998 2.429.296.074.394.05.394-.297zm-23.912 8.323c.255.079.495.152.725.245 1.452.57 2.116 1.536 2.092 3.122-.023 1.34-.41 2.595-.802 3.864l-.084.274-.078.252c-.443 1.425-.88 2.834-.857 4.332 0 .173-.074.198-.222.198h-5.168c-.271 0-.252-.126-.227-.28l.006-.042c.123-1.586.566-3.098 1.009-4.584.067-.235.137-.47.206-.703.26-.874.52-1.743.655-2.642.246-1.536-.197-2.106-1.723-2.255-.639-.062-1.295-.038-1.94-.013l-.373.013c-.221 0-.32.1-.369.322-.108.355-.22.706-.33 1.054-.168.528-.334 1.05-.482 1.573-.074.247-.172.347-.443.272l-4.356-1.19c-.27-.073-.295-.173-.221-.42.86-2.788 1.728-5.57 2.596-8.35.867-2.782 1.735-5.563 2.596-8.35.074-.248.197-.323.443-.323 2.24 0 4.48 0 6.718.025 1.379.025 2.708.248 3.963.842 1.845.868 2.78 2.33 2.879 4.361.074 1.363-.099 2.701-.64 3.99-1.181 2.577-3.224 3.914-6.054 4.261.167.056.327.105.48.152zm-4.886-2.288c.61-.006 1.209-.011 1.797.005.91.025 1.648-.322 2.264-.966 1.082-1.164 1.6-2.577 1.722-4.138.074-1.19-.492-1.858-1.649-2.081-.59-.1-1.18-.088-1.771-.077-.296.005-.591.01-.886.002-.194 0-.22.107-.246.213a199.93 199.93 0 0 0-.935 3.082v.001c-.248.776-.486 1.552-.727 2.333v.003c-.167.54-.333 1.082-.504 1.628.314 0 .626-.002.935-.005zm18.14 28.782c.129.06.246.112.356.16v.001h.002c.162.072.308.137.454.21 1.451.769 2.239 1.983 2.239 3.618.025 3.84-1.501 6.814-5.02 8.573-1.058.521-2.215.768-3.396.843-.197 0-.394-.025-.566-.124l-.001-.001c-2.658-1.461-5.315-2.923-7.997-4.385-.246-.124-.271-.248-.197-.495 1.095-3.432 2.184-6.858 3.273-10.283V86.7c1.09-3.425 2.178-6.85 3.273-10.28.074-.223.147-.322.418-.322.967.009 1.93.005 2.893 0 1.684-.007 3.365-.014 5.056.05.763.024 1.526.198 2.264.47 2.19.818 3.298 2.627 3.1 5.104-.294 3.618-2.214 5.823-5.955 6.814a.289.289 0 0 0-.11.023c-.022.008-.049.017-.087.027zm-7.506 9.49c.233-.013.467-.013.704-.013.237 0 .477 0 .723-.012 1.058-.05 1.944-.421 2.609-1.289.762-1.04 1.304-2.205 1.525-3.493.246-1.363-.344-2.28-1.698-2.602-.771-.19-1.543-.19-2.314-.192-.238 0-.475 0-.713-.006-.16 0-.192.085-.235.196l-.01.027c-.764 2.353-1.526 4.732-2.29 7.11v.001c-.073.198-.024.298.197.273h1.502zm3.322-11.324h.64c2.904-.099 4.626-1.808 4.577-4.633-.025-1.04-.492-1.636-1.476-1.883-.8-.202-1.6-.19-2.4-.179-.184.003-.37.005-.554.005-.153 0-.19.098-.23.206l-.007.02-.009.022c-.664 2.081-1.329 4.138-1.993 6.194-.074.248 0 .248.197.248h1.255zm9.002-21.96h-4.97c.098-.199.171-.347.22-.471a173.12 173.12 0 0 0 4.922-10.085c.124-.297.099-.396-.196-.47-.836-.24-1.655-.497-2.484-.757a564.84 564.84 0 0 0-.593-.185c-.27-.1-.369-.025-.516.223l-3.105 5.568a5776.04 5776.04 0 0 1-8.659 15.493.523.523 0 0 1-.051.078c-.058.076-.12.159-.047.27h5.34c.222 0 .296-.125.394-.298.43-.818.861-1.642 1.292-2.466.43-.824.861-1.647 1.292-2.465.123-.248.246-.322.517-.322 2.067.025 4.134.025 6.201 0 .345-.025.419.099.394.421-.037.793-.068 1.586-.098 2.379v.001c-.031.793-.062 1.585-.099 2.377 0 .298.074.372.37.372h4.724c.246 0 .37-.025.37-.347v-.002c.098-4.732.196-9.464.32-14.196.048-1.339.072-2.702.096-4.042l.002-.07c0-.199-.025-.323-.246-.397-.896-.253-1.781-.526-2.67-.8a205.45 205.45 0 0 0-1.514-.464c-.221-.074-.27-.025-.295.198-.222 2.107-.419 4.213-.517 6.344a62.472 62.472 0 0 0-.098 3.716v.045c.001.201.002.352-.296.352zm2.434 25.896h-.123c-.27.05-.32-.024-.222-.297.344-1.004.664-2.02.985-3.04.138-.44.277-.88.418-1.32 2.64-7.912 4.995-15.894 7.352-23.888v-.001l.001-.002c.411-1.394.823-2.789 1.236-4.183.123-.372.221-.422.59-.322 1.355.44 2.728.84 4.087 1.237l.515.15c.291.084.249.22.199.38-.01.03-.019.06-.026.09-1.258 3.974-2.506 7.948-3.756 11.926-.854 2.72-1.71 5.443-2.57 8.17-1.082 3.42-2.165 6.839-3.223 10.258-.074.273-.197.421-.517.446-1.624.149-3.248.272-4.946.396zM30.197 52.83h6.275c-.029.088-.049.166-.066.231-.012.046-.022.086-.032.116-.29.928-.578 1.856-.865 2.783a567.449 567.449 0 0 1-2.015 6.41c-.073.322-.049.421.296.52 1.232.316 2.43.65 3.636.985l.003.001.643.179c.344.1.443-.025.517-.322l3.248-10.556c.074-.297.221-.371.517-.371.526 0 1.049-.003 1.571-.006 1.042-.005 2.08-.01 3.13.006.27 0 .393-.075.467-.347.344-1.19.714-2.379 1.107-3.568.099-.372 0-.397-.32-.397-2.411.025-4.823.025-7.235.025H31.92c-.295 0-.442.075-.516.372a27.08 27.08 0 0 1-.438 1.47c-.086.273-.172.543-.251.81-.173.545-.345 1.09-.517 1.66zm79.856 37.136.134-.013c.444-.045.868-.088 1.293-.11a310.96 310.96 0 0 1 1.51-.092h.003c1.037-.062 2.07-.123 3.114-.206.295-.025.492.074.714.297 1.476 1.487 1.895 3.296 1.501 5.278-.369 1.908-1.181 3.618-2.314 5.154-1.082 1.462-2.608 2.304-4.405 2.626-2.165.397-4.331.471-6.472-.124-1.846-.495-3.199-1.536-3.667-3.493-.246-1.04-.147-2.106.099-3.122.072-.306.17-.604.269-.903.068-.21.138-.42.198-.633.05-.174.148-.273.345-.273h5.34l-.091.213c-.189.438-.365.846-.45 1.274-.123.545-.222 1.065-.148 1.61.172 1.14 1.009 1.809 2.166 1.66 1.968-.223 3.888-2.255 3.937-4.212.025-1.19-.443-2.255-1.181-3.171a8.29 8.29 0 0 0-1.6-1.487l-.013-.007-.024-.011c-.095-.046-.215-.102-.258-.255zm-2.506-12.782c.105-.341.21-.682.32-1.016a2.27 2.27 0 0 1-.039-.011c-.068-.02-.098-.028-.182.035H90.912c-.222 0-.32.1-.37.298v.001c-.37 1.19-.738 2.378-1.132 3.567-.098.347-.073.421.296.421.898-.012 1.802-.012 2.706-.012.905 0 1.81 0 2.708-.013.443-.025.467.124.344.471-.455 1.437-.898 2.88-1.34 4.323-.444 1.444-.887 2.887-1.342 4.325-.099.322-.074.42.295.396a140.62 140.62 0 0 1 4.627-.322c.369-.025.517-.149.615-.496.558-1.85 1.138-3.7 1.717-5.55.29-.925.58-1.85.867-2.775.098-.297.221-.397.541-.397 1.575.025 3.126.025 4.701.025.27 0 .418-.05.492-.347.109-.41.239-.81.37-1.213.074-.23.149-.46.22-.695.111-.334.216-.675.32-1.015zm8.065 11.103a529.83 529.83 0 0 0-3.272.223h-.001c-.353.024-.703.046-1.052.067h-.001c-.723.045-1.441.09-2.171.156a.843.843 0 0 1-.639-.174c-1.059-.743-1.723-1.808-1.772-3.072-.123-2.527.516-4.856 2.215-6.814 1.181-1.387 2.707-2.205 4.478-2.577 2.068-.421 4.135-.347 6.128.372 1.575.57 2.732 1.56 3.15 3.27.148.645.172 1.314.049 1.983a14.951 14.951 0 0 1-.639 2.28c-.074.198-.173.272-.394.272h-4.651c-.296 0-.296-.074-.222-.322.051-.155.107-.31.163-.466.133-.369.268-.745.354-1.145.074-.396.098-.817.049-1.214-.098-.57-.394-.966-.96-1.164-1.304-.422-2.534-.025-3.248 1.164-.861 1.462-1.058 2.949.074 4.435.664.992 1.427 1.859 2.362 2.726zM92.085 74.429h12.108c.246 0 .369-.074.443-.322l.198-.613.007-.022.008-.022.003-.012.002-.007h.001c.297-.922.597-1.853.913-2.768.123-.372.074-.47-.32-.47-1.07.012-2.14.012-3.211.012-1.071 0-2.141 0-3.212.012-.394.025-.467-.05-.344-.421.334-1.051.665-2.098.995-3.142l.005-.016.004-.013.001-.003.001-.002v-.002l.001-.003.001-.003.001-.003c.491-1.551.979-3.097 1.476-4.643.099-.322.025-.421-.295-.52a123.88 123.88 0 0 1-4.307-1.313c-.295-.1-.393-.025-.492.272l-2.116 6.733-.012.04v.002l-.013.04-.001.002-.003.01v.003h-.001v.002c-.712 2.267-1.424 4.535-2.136 6.796-.074.297-.074.396.295.396zm5.202 16.559c.443-.1.517.024.418.347-.689 2.205-1.378 4.41-2.067 6.64-.05.198-.172.273-.344.347-.886.26-1.778.526-2.67.793h-.004v.001h-.001c-.89.266-1.781.532-2.666.792a.587.587 0 0 0-.104.034c-.078.032-.147.06-.216-.01-.09-.072-.048-.157-.01-.237.015-.03.028-.058.035-.085.837-2.65 1.674-5.302 2.486-7.953.049-.199.123-.347.393-.372 1.222-.056 2.444-.14 3.614-.22h.001c.385-.027.764-.053 1.135-.077zm6.262-36.392c.096-.334.196-.68.31-1.025.018-.106-.04-.162-.101-.22-.024-.025-.05-.049-.071-.077-.689-.459-1.378-.91-2.067-1.363-.689-.452-1.378-.905-2.067-1.363-.197-.124-.295-.074-.345.149-.123.47-.27.941-.418 1.412v.002a618.4 618.4 0 0 1-1.944 6.316c-.099.248-.05.347.197.422 1.476.446 2.953.892 4.429 1.363.271.099.37 0 .443-.248.344-1.194.712-2.375 1.078-3.553l.001-.005.001-.003c.158-.506.315-1.013.471-1.519l.083-.288zM44.52 74.662h-2.362c-.32 0-.394-.075-.296-.397a746.54 746.54 0 0 0 2.24-6.888c.074-.223.172-.248.369-.198.75.198 1.495.403 2.24.607.744.204 1.488.409 2.239.607.221.05.221.149.172.322l-.515 1.635a297.903 297.903 0 0 0-1.257 4.04c-.074.247-.197.272-.393.272-.837.025-1.625.025-2.437 0zm-9.93-2.588c-.749-.81-1.484-1.603-2.277-2.351-.665-.644-.739-1.19-.443-2.007.32-.816.554-1.662.79-2.514.072-.26.144-.521.219-.782.049-.198.147-.247.369-.198 1.501.421 2.977.818 4.479 1.214l.013.004c.189.047.304.076.208.319a815.182 815.182 0 0 0-2.24 7.26c0 .049-.024.099-.073.173a109.05 109.05 0 0 1-1.045-1.118zM50.769 84.22c.295.05.615.075.935.1 1.378 0 2.166-.397 2.609-1.413.664-1.511 1.181-3.072 1.476-4.683.123-.669-.123-1.214-.713-1.586-1.502-.916-3.643-.346-4.38 1.24-.64 1.313-1.035 2.75-1.379 4.162-.295 1.214.221 1.933 1.452 2.18zm2.067-1.883c-.197.471-.541.744-1.181.768-.394 0-.69-.272-.714-.792 0-.15.025-.273.05-.397a37.108 37.108 0 0 1 1.205-3.642c.222-.52.59-.843 1.157-.843.541 0 .886.372.763.892a33.046 33.046 0 0 1-1.28 4.014zm10.784 20.36-1.14.17c-1.275.19-2.528.377-3.781.549-.522.079-1.044.15-1.566.222-.782.107-1.565.214-2.347.347-.38.048-.348-.042-.256-.294l.01-.028c.541-1.585 1.058-3.196 1.575-4.807.073-.198.123-.322.369-.173 1.169.657 2.344 1.307 3.519 1.957 1.175.651 2.35 1.301 3.519 1.958.03 0 .042.019.058.045.01.016.022.035.04.054zm-7.165-23.301c-.493 1.585-.985 3.171-1.477 4.807h1.378c.246 0 .32-.1.394-.322.098-.323.197-.639.295-.955.099-.315.197-.631.295-.953.04-.117.068-.248.097-.38.064-.29.128-.582.297-.735.192-.176.507-.14.823-.104.13.014.26.03.383.03.501 0 .754 0 .914-.122.162-.123.23-.371.366-.87.074-.248.024-.322-.246-.322h-1.895a3.282 3.282 0 0 0 .098-.372l.09-.267c.116-.35.23-.69.329-1.046.049-.198.172-.223.344-.223h1.083c1.033 0 1.033 0 1.329-.966.098-.298.025-.322-.246-.322a77.833 77.833 0 0 1-3.396 0c-.271 0-.345.123-.419.346-.27.942-.541 1.859-.836 2.776z" fill="#2962EF"/></svg>