<svg width="153" height="23" fill="none" xmlns="http://www.w3.org/2000/svg"><path d="M10.976.607a14.645 14.645 0 0 0 10.51 3.68 14.48 14.48 0 0 1 .467 3.653c0 6.77-4.664 12.459-10.977 14.072C4.664 20.399 0 14.709 0 7.94a14.456 14.456 0 0 1 .466-3.652A14.645 14.645 0 0 0 10.976.607z" fill="url(#a)"/><path d="m6.693 11.924 2.688 2.698 6.72-6.746" stroke="#fff" stroke-width="1.767" stroke-linecap="round" stroke-linejoin="round"/><path d="M36.613 5.42 33.821.75a.16.16 0 0 0-.27-.002l-.837 1.4a.293.293 0 0 0 0 .3l1.82 3.047a.308.308 0 0 0 .115.11c.048.027.102.04.156.04h1.673a.16.16 0 0 0 .135-.075.148.148 0 0 0 0-.15zM29.291 7.863l2.793-4.67a.16.16 0 0 1 .27 0l.837 1.399a.294.294 0 0 1 0 .301L31.37 7.94a.306.306 0 0 1-.114.11.32.32 0 0 1-.156.04h-1.674a.16.16 0 0 1-.136-.075.147.147 0 0 1 .001-.152zM32.355 8.086h5.586a.16.16 0 0 0 .078-.02.153.153 0 0 0 .057-.056.146.146 0 0 0 0-.15l-.836-1.4a.306.306 0 0 0-.114-.11.321.321 0 0 0-.157-.04h-3.642a.321.321 0 0 0-.156.04.308.308 0 0 0-.114.11l-.837 1.4a.147.147 0 0 0 .057.205.16.16 0 0 0 .078.02zM42.79 5.254v-.105c0-.262-.09-.463-.274-.603-.177-.144-.41-.217-.7-.217-.221 0-.396.038-.524.113-.122.07-.238.177-.35.321a.272.272 0 0 1-.108.089.424.424 0 0 1-.158.024h-.25a.25.25 0 0 1-.166-.064.18.18 0 0 1-.058-.153c.016-.16.097-.319.241-.474.15-.161.347-.292.591-.394.244-.102.505-.153.783-.153.516 0 .932.14 1.249.418.322.279.482.67.482 1.174V7.68c0 .06-.022.11-.066.153a.22.22 0 0 1-.158.064h-.308a.22.22 0 0 1-.158-.064.205.205 0 0 1-.067-.153v-.33c-.089.194-.278.346-.566.459a2.368 2.368 0 0 1-.866.169c-.283 0-.536-.049-.758-.145a1.261 1.261 0 0 1-.516-.41 1.005 1.005 0 0 1-.175-.579c0-.402.156-.715.466-.94.311-.23.725-.386 1.24-.466l1.175-.185zm0 .643-.982.153c-.36.053-.64.142-.84.265-.2.118-.3.268-.3.45 0 .134.064.254.191.362.128.107.322.16.583.16.4 0 .724-.11.974-.33.25-.219.375-.506.375-.86v-.2zM45.523 7.683c0 .059-.022.11-.067.152a.22.22 0 0 1-.157.065h-.309a.22.22 0 0 1-.158-.065.205.205 0 0 1-.066-.152V2.41c0-.059.022-.11.066-.153a.22.22 0 0 1 .158-.064h.309a.22.22 0 0 1 .157.064.205.205 0 0 1 .067.153v5.273zM48.52 7.287c.556 0 .93-.209 1.125-.627a.505.505 0 0 1 .117-.168.24.24 0 0 1 .158-.049h.25a.22.22 0 0 1 .158.065.172.172 0 0 1 .066.136c0 .183-.075.378-.225.587-.15.21-.366.386-.649.53a2.17 2.17 0 0 1-1 .218c-.393 0-.735-.08-1.023-.242-.289-.16-.51-.38-.666-.659a2.167 2.167 0 0 1-.258-.948 5.482 5.482 0 0 1 0-.643c.05-.547.241-.991.574-1.334.333-.343.791-.515 1.374-.515.383 0 .713.073.99.217.284.14.497.314.642.523.15.203.23.396.241.578a.17.17 0 0 1-.066.153.22.22 0 0 1-.159.064h-.25a.24.24 0 0 1-.157-.048.505.505 0 0 1-.117-.169c-.194-.418-.569-.627-1.124-.627-.305 0-.571.1-.8.298-.227.198-.357.498-.39.9a3.416 3.416 0 0 0-.009.29c0 .123.003.214.009.273.038.402.17.702.39.9.229.198.495.297.8.297zM55.237 7.683c0 .059-.022.11-.066.152a.22.22 0 0 1-.159.065h-.308a.22.22 0 0 1-.158-.065.205.205 0 0 1-.067-.152V5.56c0-.402-.102-.708-.308-.917-.205-.209-.491-.313-.857-.313-.361 0-.647.104-.858.313-.205.21-.308.515-.308.917v2.122c0 .059-.022.11-.066.152a.22.22 0 0 1-.159.065h-.308a.22.22 0 0 1-.158-.065.205.205 0 0 1-.066-.152V2.41c0-.059.022-.11.066-.153a.22.22 0 0 1 .158-.064h.308a.22.22 0 0 1 .159.064.205.205 0 0 1 .066.153v1.776c.122-.155.289-.284.5-.386.216-.107.48-.16.79-.16.35 0 .661.072.933.217.272.144.483.353.633.627.155.268.233.586.233.956v2.243zM58.156 3.638c.594 0 1.063.182 1.407.547.344.364.516.86.516 1.487v.217c0 .059-.022.11-.066.153a.22.22 0 0 1-.159.064H56.99v.048c.011.354.122.632.333.836.217.198.494.297.833.297.277 0 .491-.034.64-.104.157-.07.295-.169.417-.297a.479.479 0 0 1 .117-.089.394.394 0 0 1 .15-.024h.25a.23.23 0 0 1 .166.064.179.179 0 0 1 .058.153c-.022.145-.105.295-.25.45-.138.15-.341.279-.607.386-.261.102-.575.153-.941.153a1.91 1.91 0 0 1-.95-.233c-.277-.161-.499-.38-.665-.66a2.295 2.295 0 0 1-.292-.94 5.945 5.945 0 0 1-.017-.37c0-.085.006-.209.017-.37.034-.332.13-.632.292-.9.166-.268.386-.48.657-.635.278-.155.597-.233.958-.233zm1.174 1.793v-.024c0-.327-.108-.587-.325-.78-.21-.198-.494-.298-.85-.298-.321 0-.596.1-.823.298a1.02 1.02 0 0 0-.342.78v.024h2.34zM61.84 4.185c.133-.166.283-.298.45-.394.166-.102.388-.153.665-.153.65 0 1.105.233 1.366.7.16-.226.344-.397.55-.515.204-.123.474-.185.807-.185.544 0 .946.158 1.207.474.266.317.4.764.4 1.343V7.68c0 .06-.023.11-.067.153a.219.219 0 0 1-.158.064h-.308a.22.22 0 0 1-.158-.064.205.205 0 0 1-.067-.153V5.535c0-.804-.327-1.206-.982-1.206-.3 0-.539.097-.716.29-.178.193-.267.48-.267.86V7.68c0 .06-.022.11-.066.153a.22.22 0 0 1-.159.064h-.308a.22.22 0 0 1-.158-.064.205.205 0 0 1-.066-.153V5.535c0-.804-.328-1.206-.983-1.206-.3 0-.538.097-.716.29-.178.193-.267.48-.267.86V7.68c0 .06-.021.11-.066.153a.22.22 0 0 1-.158.064h-.308a.22.22 0 0 1-.159-.064.205.205 0 0 1-.066-.153V3.936c0-.06.022-.11.066-.153a.22.22 0 0 1 .159-.064h.308a.22.22 0 0 1 .158.064.205.205 0 0 1 .066.153v.249zM69.616 9.238c-.05.129-.13.193-.241.193h-.342a.197.197 0 0 1-.141-.056.183.183 0 0 1-.058-.137c0-.021.002-.04.008-.056l.8-1.68-1.65-3.529a.168.168 0 0 1-.008-.056c0-.054.02-.1.058-.137a.197.197 0 0 1 .142-.056h.341c.112 0 .192.064.242.193l1.282 2.733 1.299-2.733c.05-.129.13-.193.241-.193h.342a.196.196 0 0 1 .2.193c0 .021-.003.04-.008.056l-2.507 5.265z" fill="#CACED4"/><path d="M34.149 21.061c1.844 0 2.897-1.008 3.5-2.042l-1.53-.735a2.245 2.245 0 0 1-1.97 1.208c-1.518 0-2.622-1.158-2.622-2.727 0-1.57 1.104-2.728 2.622-2.728.865 0 1.618.536 1.97 1.208l1.53-.747c-.59-1.033-1.656-2.03-3.5-2.03-2.51 0-4.454 1.744-4.454 4.297s1.945 4.296 4.454 4.296zm7.119 0c.94 0 1.894-.286 2.496-.834l-.702-1.021c-.39.373-1.104.598-1.618.598-1.03 0-1.644-.635-1.744-1.395h4.503v-.349c0-1.968-1.23-3.313-3.036-3.313-1.843 0-3.136 1.408-3.136 3.151 0 1.93 1.393 3.163 3.237 3.163zm1.392-3.723h-2.985c.075-.598.502-1.333 1.492-1.333 1.054 0 1.456.76 1.493 1.333zm4.036 3.574V16.94c.264-.386.966-.685 1.493-.685.176 0 .326.013.439.038v-1.545c-.753 0-1.505.436-1.932.972v-.822h-1.593v6.015h1.593zm4.71.15c.664 0 1.09-.175 1.329-.387l-.339-1.195c-.088.087-.313.174-.552.174-.351 0-.552-.286-.552-.66V16.28h1.23v-1.382h-1.23v-1.644h-1.605v1.644h-1.004v1.382h1.004v3.139c0 1.07.602 1.643 1.718 1.643zm2.745-6.813a.95.95 0 0 0 .953-.946.939.939 0 0 0-.953-.934.947.947 0 0 0-.954.934c0 .523.44.946.954.946zm.803 6.663v-6.015H53.36v6.015h1.594zm3.285 0V16.28h1.23v-1.382h-1.23v-.324c0-.548.301-.847.753-.847.213 0 .389.062.514.15l.326-1.146c-.288-.15-.702-.25-1.154-.25-1.191 0-2.044.785-2.044 2.093v.324H55.63v1.382h1.003v4.633h1.606zm2.936-6.663a.95.95 0 0 0 .953-.946.94.94 0 0 0-.953-.934.947.947 0 0 0-.954.934c0 .523.44.946.954.946zm.802 6.663v-6.015h-1.593v6.015h1.593zm4.179.15c.94 0 1.894-.287 2.496-.835l-.702-1.021c-.39.373-1.104.598-1.619.598-1.028 0-1.643-.635-1.743-1.395h4.503v-.349c0-1.968-1.23-3.313-3.036-3.313-1.844 0-3.136 1.408-3.136 3.151 0 1.93 1.393 3.163 3.237 3.163zm1.392-3.724h-2.985c.075-.598.501-1.333 1.492-1.333 1.054 0 1.456.76 1.493 1.333zm8.214 3.574v-8.307h-1.606v3.064a2.34 2.34 0 0 0-1.87-.922c-1.542 0-2.684 1.196-2.684 3.164 0 2.005 1.154 3.15 2.685 3.15.727 0 1.392-.323 1.869-.921v.772h1.606zm-2.986-1.258c-.903 0-1.53-.71-1.53-1.743 0-1.047.627-1.756 1.53-1.756.54 0 1.117.286 1.38.685v2.13c-.263.398-.84.684-1.38.684zm9.092 1.258v-8.307h-1.781v8.307h1.781zm7.055 0v-4.247c0-1.17-.64-1.918-1.969-1.918-.991 0-1.731.474-2.12.934v-.784H83.24v6.015h1.593v-4.047a1.73 1.73 0 0 1 1.38-.71c.677 0 1.116.286 1.116 1.12v3.637h1.593zm3.288 0V16.28h1.23v-1.382h-1.23v-.324c0-.56.314-.847.753-.847.288 0 .502.087.665.25l.602-.935c-.39-.41-1.004-.56-1.58-.56-1.218 0-2.046.81-2.046 2.092v.324h-1.003v1.382h1.003v4.633h1.606zm3.49 0V16.94c.263-.386.966-.685 1.492-.685.176 0 .326.013.44.038v-1.545c-.753 0-1.506.436-1.932.972v-.822h-1.594v6.015h1.594zm7.907 0v-3.886c0-1.73-1.267-2.279-2.647-2.279-.954 0-1.907.3-2.647.947l.602 1.058c.514-.473 1.117-.71 1.769-.71.803 0 1.33.4 1.33 1.01v.809c-.402-.473-1.117-.735-1.92-.735-.966 0-2.107.536-2.107 1.943 0 1.345 1.141 1.992 2.107 1.992.791 0 1.506-.286 1.92-.772v.623h1.593zm-2.873-.921c-.627 0-1.141-.324-1.141-.885 0-.585.514-.909 1.141-.909.514 0 1.016.175 1.28.523v.747c-.264.35-.766.524-1.28.524zm6.385 1.07c1.681 0 2.622-.834 2.622-1.93 0-2.428-3.588-1.681-3.588-2.578 0-.336.377-.598.954-.598.74 0 1.43.312 1.794.698l.639-1.084c-.602-.473-1.417-.822-2.446-.822-1.593 0-2.484.885-2.484 1.893 0 2.367 3.601 1.557 3.601 2.553 0 .374-.327.648-1.017.648-.752 0-1.655-.411-2.094-.822l-.69 1.109c.639.585 1.655.933 2.709.933zm5.577 0c.665 0 1.091-.174 1.329-.386l-.338-1.195c-.088.087-.314.174-.552.174-.351 0-.552-.286-.552-.66V16.28h1.229v-1.382h-1.229v-1.644h-1.606v1.644h-1.003v1.382h1.003v3.139c0 1.07.602 1.643 1.719 1.643zm3.548-.149V16.94c.264-.386.966-.685 1.493-.685.176 0 .326.013.439.038v-1.545c-.753 0-1.505.436-1.932.972v-.822h-1.593v6.015h1.593zm8.36 0v-6.015h-1.594v4.072c-.276.349-.765.685-1.379.685-.678 0-1.117-.274-1.117-1.108v-3.65h-1.593v4.273c0 1.17.627 1.892 1.957 1.892.991 0 1.718-.448 2.132-.909v.76h1.594zm4.153.15c1.242 0 1.994-.536 2.396-1.096l-1.041-.96a1.534 1.534 0 0 1-1.28.648c-.966 0-1.643-.71-1.643-1.756s.677-1.743 1.643-1.743c.552 0 .991.224 1.28.647l1.041-.971c-.402-.548-1.154-1.084-2.396-1.084-1.869 0-3.212 1.308-3.212 3.151 0 1.856 1.343 3.163 3.212 3.163zm5.219 0c.665 0 1.091-.175 1.33-.387l-.339-1.195c-.088.087-.314.174-.552.174-.351 0-.552-.286-.552-.66V16.28h1.229v-1.382h-1.229v-1.644h-1.606v1.644h-1.003v1.382h1.003v3.139c0 1.07.602 1.643 1.719 1.643zm7.638-.15v-6.015h-1.593v4.072c-.276.349-.766.685-1.38.685-.678 0-1.117-.274-1.117-1.108v-3.65h-1.593v4.273c0 1.17.627 1.892 1.957 1.892.991 0 1.719-.448 2.133-.909v.76h1.593zm2.924 0V16.94c.264-.386.966-.685 1.493-.685.176 0 .326.013.439.038v-1.545c-.753 0-1.505.436-1.932.972v-.822h-1.593v6.015h1.593zm5.524.15c.941 0 1.894-.287 2.496-.835l-.702-1.021c-.389.373-1.104.598-1.618.598-1.029 0-1.644-.635-1.744-1.395h4.503v-.349c0-1.968-1.229-3.313-3.035-3.313-1.844 0-3.136 1.408-3.136 3.151 0 1.93 1.392 3.163 3.236 3.163zm1.392-3.724h-2.985c.075-.598.502-1.333 1.493-1.333 1.053 0 1.455.76 1.492 1.333z" fill="#767676"/><defs><linearGradient id="a" x1="29.38" y1="-8.643" x2="-1.198" y2="-7.244" gradientUnits="userSpaceOnUse"><stop stop-color="#05D5FF"/><stop offset="1" stop-color="#53F"/></linearGradient></defs></svg>