<svg width="56" height="56" viewBox="0 0 56 56" fill="none" xmlns="http://www.w3.org/2000/svg">
<g clip-path="url(#clip0_7_4720)">
<path d="M0 7.46667C0 4.85309 0 3.5463 0.508636 2.54804C0.956045 1.66995 1.66995 0.956045 2.54804 0.508636C3.5463 0 4.85309 0 7.46667 0H48.5333C51.1469 0 52.4537 0 53.452 0.508636C54.33 0.956045 55.044 1.66995 55.4914 2.54804C56 3.5463 56 4.85309 56 7.46667V48.5333C56 51.1469 56 52.4537 55.4914 53.452C55.044 54.33 54.33 55.044 53.452 55.4914C52.4537 56 51.1469 56 48.5333 56H7.46667C4.85309 56 3.5463 56 2.54804 55.4914C1.66995 55.044 0.956045 54.33 0.508636 53.452C0 52.4537 0 51.1469 0 48.5333V7.46667Z" fill="#EAF0FE"/>
<path d="M12.1653 14C11.2055 14 10.8358 15.1867 11.641 15.6824L31.7865 27.8294C32.2887 28.1386 32.9584 28.0164 33.3042 27.5526L42.1616 15.9244C42.7638 15.1165 42.1554 14 41.113 14H12.1653Z" fill="#2962EF"/>
<path d="M43.8282 42C44.7878 42 45.1672 40.8069 44.362 40.3113L24.2107 28.1658C23.7086 27.8567 23.0551 27.9943 22.7094 28.458L13.8348 40.084C13.2327 40.8916 13.8602 42 14.9024 42H43.8282Z" fill="#2962EF"/>
</g>
<defs>
<clipPath id="clip0_7_4720">
<rect width="56" height="56" rx="9.33333" fill="white"/>
</clipPath>
</defs>
</svg>
