<svg xmlns="http://www.w3.org/2000/svg" width="56" height="56" viewBox="0 0 56 56"><rect width="56" height="56" fill="#e7e9ff"/><path d="M38.4,18.451a24.712,24.712,0,0,0-6.106-1.9.093.093,0,0,0-.1.046,17.255,17.255,0,0,0-.76,1.564,22.814,22.814,0,0,0-6.858,0A15.836,15.836,0,0,0,23.8,16.6a.1.1,0,0,0-.1-.046,24.645,24.645,0,0,0-6.106,1.9.087.087,0,0,0-.04.035,25.374,25.374,0,0,0-4.432,17.1.1.1,0,0,0,.039.07,24.866,24.866,0,0,0,7.491,3.791.1.1,0,0,0,.105-.035,17.806,17.806,0,0,0,1.532-2.5.1.1,0,0,0-.052-.132,16.369,16.369,0,0,1-2.34-1.117.1.1,0,0,1-.01-.16c.157-.118.315-.241.465-.365a.093.093,0,0,1,.1-.013,17.722,17.722,0,0,0,15.077,0,.092.092,0,0,1,.1.012c.15.124.307.248.466.366a.1.1,0,0,1-.008.16,15.363,15.363,0,0,1-2.341,1.116.1.1,0,0,0-.051.133,19.987,19.987,0,0,0,1.531,2.495.1.1,0,0,0,.105.036,24.783,24.783,0,0,0,7.5-3.791.1.1,0,0,0,.039-.069,25.207,25.207,0,0,0-4.436-17.1A.076.076,0,0,0,38.4,18.451ZM23.025,32.169a2.886,2.886,0,0,1-2.7-3.027,2.87,2.87,0,0,1,2.7-3.027,2.854,2.854,0,0,1,2.7,3.027A2.87,2.87,0,0,1,23.025,32.169Zm9.968,0a2.885,2.885,0,0,1-2.7-3.027,2.714,2.714,0,1,1,5.392,0A2.862,2.862,0,0,1,32.993,32.169Z" fill="#5865f2"/></svg>