<svg width="871" height="237" viewBox="0 0 871 237" fill="none" xmlns="http://www.w3.org/2000/svg">
<path d="M87.8747 105.84H62.0089L41.2212 68.2328H24.7179V105.84H2.18454V3.8147e-06H51.6943C62.5909 3.8147e-06 71.2127 3.17363 77.5601 9.52087C84.0134 15.8681 87.2401 24.0665 87.2401 34.1165C87.2401 42.791 84.9655 49.8258 80.4164 55.221C75.9734 60.6162 70.5251 64.0542 64.0718 65.5353L87.8747 105.84ZM48.3621 48.3978C53.0168 48.3978 56.8251 47.1283 59.7872 44.5893C62.7496 41.9447 64.2305 38.4536 64.2305 34.1165C64.2305 29.7792 62.7496 26.341 59.7872 23.8022C56.8251 21.1574 53.0168 19.8351 48.3621 19.8351H24.7179V48.3978H48.3621Z" fill="black"/>
<path d="M210.789 105.84H135.889V3.8147e-06H210.789V19.8351H158.423V42.2092H209.678V62.0442H158.423V86.0052H210.789V105.84Z" fill="black"/>
<path d="M312.189 105.84H289.657V62.5204L248.875 3.8147e-06H274.582L300.923 42.5264L326.948 3.8147e-06H352.655L312.189 62.5204V105.84Z" fill="black"/>
<path d="M488.891 105.84H467.151L416.69 36.814V105.84H394.155V3.8147e-06H417.325L466.359 66.4874V3.8147e-06H488.891V105.84Z" fill="black"/>
<path d="M640.2 105.84H614.493L607.988 87.9093H562.603L555.938 105.84H530.231L571.173 3.8147e-06H599.418L640.2 105.84ZM601.8 68.0741L585.296 22.5327L568.791 68.0741H601.8Z" fill="black"/>
<path d="M645.742 0.0526047H676.598L716.269 105.84H685.413L645.742 0.0526047Z" fill="#F5565A"/>
<path d="M46.7576 233.667H41.3974L2.18454 139.587H7.40353L44.0775 228.448L80.7516 139.587H85.9705L46.7576 233.667Z" fill="black"/>
<path d="M187.07 233.667H129.52V139.587H187.07V143.818H134.033V183.171H186.082V187.402H134.033V229.435H187.07V233.667Z" fill="black"/>
<path d="M308.886 233.667H304.373L240.898 146.921V233.667H236.384V139.587H240.898L304.373 225.486V139.587H308.886V233.667Z" fill="black"/>
<path d="M391.182 233.667H386.667V143.818H354.93V139.587H423.058V143.818H391.182V233.667Z" fill="black"/>
<path d="M529.92 225.486C523.901 232.068 515.252 235.359 503.966 235.359C492.683 235.359 484.031 232.068 478.013 225.486C471.994 218.903 468.985 209.735 468.985 197.981V139.587H473.5V197.981C473.5 208.513 476.131 216.694 481.398 222.524C486.665 228.26 494.187 231.128 503.966 231.128C513.746 231.128 521.27 228.26 526.535 222.524C531.801 216.694 534.435 208.513 534.435 197.981V139.587H538.947V197.981C538.947 209.735 535.938 218.903 529.92 225.486Z" fill="black"/>
<path d="M653.467 233.667H647.683L619.049 193.044H596.48V233.667H591.968V139.587H624.409C632.402 139.587 639.031 141.984 644.298 146.78C649.563 151.482 652.196 157.97 652.196 166.245C652.196 174.52 649.517 181.055 644.157 185.851C638.89 190.646 632.309 193.044 624.409 193.044L653.467 233.667ZM624.409 188.813C631.272 188.813 636.774 186.697 640.913 182.466C645.143 178.234 647.26 172.827 647.26 166.245C647.26 159.663 645.143 154.303 640.913 150.165C636.774 145.934 631.272 143.818 624.409 143.818H596.48V188.813H624.409Z" fill="black"/>
<path d="M759.412 233.667H701.862V139.587H759.412V143.818H706.375V183.171H758.425V187.402H706.375V229.435H759.412V233.667Z" fill="black"/>
<path d="M836.654 235.359C829.602 235.359 823.255 233.996 817.613 231.269C811.97 228.542 807.364 224.922 803.79 220.408L807.457 217.164C815.075 226.473 824.807 231.128 836.654 231.128C841.828 231.128 846.295 230.47 850.056 229.153C853.817 227.743 856.637 225.956 858.519 223.793C860.398 221.536 861.763 219.28 862.61 217.023C863.455 214.672 863.879 212.274 863.879 209.829C863.879 205.033 862.469 201.037 859.647 197.84C856.826 194.549 853.3 192.198 849.067 190.787C844.837 189.377 840.229 187.919 835.244 186.415C830.356 184.816 825.795 183.312 821.563 181.901C817.33 180.397 813.804 177.952 810.983 174.567C808.163 171.182 806.751 166.997 806.751 162.013C806.751 154.679 809.619 148.849 815.357 144.523C821.093 140.198 828.05 138.035 836.233 138.035C849.398 138.035 859.553 142.454 866.699 151.294L863.173 154.538C856.872 146.357 847.892 142.266 836.233 142.266C829.274 142.266 823.444 144.147 818.743 147.908C814.041 151.576 811.69 156.277 811.69 162.013C811.69 165.587 812.724 168.643 814.792 171.182C816.954 173.721 819.681 175.695 822.973 177.106C826.358 178.516 830.073 179.833 834.117 181.055C838.254 182.184 842.345 183.453 846.388 184.863C850.432 186.18 854.1 187.778 857.391 189.659C860.776 191.54 863.503 194.22 865.572 197.699C867.733 201.084 868.816 205.128 868.816 209.829C868.816 212.744 868.298 215.612 867.264 218.433C866.23 221.16 864.583 223.887 862.328 226.614C860.07 229.247 856.733 231.363 852.311 232.961C847.892 234.56 842.673 235.359 836.654 235.359Z" fill="black"/>
</svg>
