<svg width="373" height="210" fill="none" xmlns="http://www.w3.org/2000/svg"><g clip-path="url(#a)"><path d="M375 0H0v210h375V0z" fill="#fff"/><path d="M375 47.5H0v.5h375v-.5z" fill="#E6E7E9"/><path fill-rule="evenodd" clip-rule="evenodd" d="M197.753 21.985a1 1 0 0 0 .996-.989c0-.55-.454-.996-.996-.996a.997.997 0 0 0-.996.996c0 .542.447.989.996.989zm-.798 9.375h1.582v-7.954h-1.582v7.954zm-36.058.256c3.055 0 4.93-2.153 4.93-5.537v-.015c0-3.39-1.89-5.53-4.93-5.53-3.032 0-4.936 2.132-4.936 5.53v.015c0 3.391 1.86 5.537 4.936 5.537zm0-1.45c-2.036 0-3.259-1.611-3.259-4.087v-.015c0-2.497 1.26-4.08 3.259-4.08 2 0 3.252 1.583 3.252 4.08v.015c0 2.476-1.245 4.087-3.252 4.087zm8.728 1.194h1.692l2.871-7.954h-1.67l-1.977 6.343h-.125l-1.985-6.343h-1.684l2.878 7.954zm12.155-2.066c-.263 1.048-1.362 2.22-3.398 2.22-2.329 0-3.735-1.59-3.735-4.11v-.006c0-2.483 1.435-4.146 3.654-4.146 2.22 0 3.582 1.604 3.582 3.992v.556h-5.64c.03 1.524.865 2.41 2.176 2.41 1.018 0 1.626-.505 1.816-.916l.029-.058 1.531-.008-.015.066zm-1.472-2.629c-.124-1.42-.923-2.11-1.999-2.11-1.084 0-1.905.74-2.044 2.11h4.043zm3.03 4.695h1.589v-4.754c0-1.15.828-1.897 2.043-1.897.301 0 .572.037.857.096V23.34a3.488 3.488 0 0 0-.695-.073c-1.062 0-1.802.498-2.088 1.34h-.117v-1.201h-1.589v7.954zm9.555 0h-1.692l-2.879-7.954h1.685l1.985 6.343h.124l1.978-6.343h1.67l-2.871 7.954zm14.262-2.066c-.264 1.048-1.363 2.22-3.399 2.22-2.329 0-3.735-1.59-3.735-4.11v-.006c0-2.483 1.435-4.146 3.655-4.146 2.219 0 3.581 1.604 3.581 3.992v.556h-5.639c.029 1.524.864 2.41 2.175 2.41 1.018 0 1.626-.505 1.816-.916l.03-.058 1.53-.008-.014.066zm-1.473-2.629c-.124-1.42-.922-2.11-1.999-2.11-1.084 0-1.904.74-2.043 2.11h4.042zm4.502 4.695h1.619l1.64-5.933h.125l1.648 5.933h1.633l2.19-7.954h-1.575l-1.421 6.138h-.124l-1.641-6.138h-1.509l-1.64 6.138h-.117l-1.429-6.138h-1.596l2.197 7.954zm79.909 0h-1.641V20.79h1.641v4.468h5.427V20.79h1.633V31.36h-1.633v-4.68h-5.427v4.68zm9.921-9.375a1 1 0 0 0 .996-.989c0-.55-.454-.996-.996-.996a.997.997 0 0 0-.996.996c0 .542.447.989.996.989zm-.798 9.375h1.582v-7.954h-1.582v7.954zm9.65-2.322c0 1.472-1.406 2.476-3.295 2.476-1.919 0-3.135-.901-3.289-2.234v-.008h1.589l.008.008c.197.6.776 1.003 1.721 1.003.981 0 1.662-.447 1.662-1.098v-.015c0-.498-.373-.835-1.296-1.047l-1.267-.293c-1.501-.345-2.197-1.026-2.197-2.19v-.008c0-1.384 1.289-2.38 3.091-2.38 1.816 0 2.98.908 3.12 2.204v.008h-1.516v-.015c-.154-.556-.718-.974-1.612-.974-.871 0-1.501.432-1.501 1.07v.014c0 .498.366.806 1.26 1.018l1.259.286c1.531.359 2.263 1.01 2.263 2.16v.015zm4.407 2.373c.307 0 .6-.037.857-.08v-1.267a5.26 5.26 0 0 1-.601.029c-.784 0-1.106-.352-1.106-1.209v-4.226h1.707v-1.252h-1.707v-2.007h-1.619v2.007h-1.245v1.252h1.245v4.607c0 1.53.718 2.146 2.469 2.146zm9.313-4.02c0 2.563-1.428 4.123-3.757 4.123-2.336 0-3.765-1.56-3.765-4.124v-.015c0-2.556 1.436-4.123 3.765-4.123 2.322 0 3.757 1.56 3.757 4.123v.015zm-5.896 0c0 1.764.769 2.797 2.139 2.797 1.362 0 2.139-1.04 2.139-2.798v-.015c0-1.765-.777-2.797-2.139-2.797-1.37 0-2.139 1.032-2.139 2.797v.015zm7.358 3.969h1.59v-4.754c0-1.15.827-1.897 2.043-1.897.3 0 .571.037.857.096V23.34a3.49 3.49 0 0 0-.696-.073c-1.062 0-1.802.498-2.087 1.34h-.117v-1.201h-1.59v7.954zm9.541.308c-.674 1.897-1.48 2.49-3.091 2.49-.198 0-.432-.015-.637-.037V32.87c.154.022.351.029.534.029.74 0 1.187-.315 1.421-1.12l.118-.41-2.886-7.962h1.714l1.992 6.357h.139l1.985-6.357h1.67l-2.959 8.262z" fill="#9C9FA8"/><path d="M16 80a8 8 0 0 1 8-8h327a8 8 0 0 1 8 8v104a8 8 0 0 1-8 8H24a8 8 0 0 1-8-8V80z" fill="#F7F7FB"/><path d="M236.408 158.215a2.542 2.542 0 0 0 2.558-2.559 2.541 2.541 0 0 0-2.558-2.558 2.542 2.542 0 0 0-2.559 2.558 2.543 2.543 0 0 0 2.559 2.559zM246.155 158.371c.957 0 1.504-.351 1.972-1.269l11.348-22.071c.605-1.191.879-1.875.879-2.695 0-1.582-1.035-2.52-2.676-2.52h-14.941c-1.133 0-1.953.723-1.953 1.836 0 1.133.82 1.856 1.953 1.856h13.125v.097l-11.328 21.583c-.274.527-.391.898-.391 1.406 0 1.035.801 1.777 2.012 1.777zM276.175 158.371c1.23 0 2.109-.84 2.109-2.187v-3.789h2.227c1.152 0 1.914-.743 1.914-1.836 0-1.094-.762-1.836-1.914-1.836h-2.227v-15.977c0-2.109-1.308-3.301-3.593-3.301-1.836 0-2.95.782-4.668 3.321-3.633 5.273-7.129 10.507-9.121 14.082-.743 1.289-.977 2.07-.977 3.066 0 1.504.996 2.481 2.559 2.481h11.601v3.789c0 1.347.879 2.187 2.09 2.187zm-2.051-9.59h-10.097v-.117c2.285-4.082 5.234-8.496 10.019-15.352h.078v15.469z" fill="#9C9FA8"/><path fill-rule="evenodd" clip-rule="evenodd" d="M103.37 114h1.86v-10.376h3.66v-1.602h-9.189v1.602h3.669V114zm1.509 47.105c.625 0 1.094-.429 1.094-1.113v-2.461c4.98-.351 8.886-3.047 8.886-7.851 0-4.16-2.812-6.27-7.949-7.461l-.937-.235v-8.144c2.168.273 3.574 1.445 4.394 3.476.41.938 1.055 1.504 2.071 1.504 1.132 0 1.914-.722 1.914-1.777 0-.352-.04-.664-.137-.996-.918-3.223-4.082-5.43-8.242-5.762v-2.48c0-.684-.469-1.114-1.094-1.114-.645 0-1.113.43-1.113 1.114v2.48c-4.922.371-8.438 3.242-8.438 7.637 0 3.965 2.676 6.191 7.637 7.344l.801.195v8.516c-2.793-.293-4.18-1.661-4.825-3.497-.41-1.035-1.093-1.523-2.03-1.523-1.192 0-1.954.762-1.954 1.875 0 .313.059.664.156.996.938 3.262 4.336 5.391 8.653 5.703v2.461c0 .684.468 1.113 1.113 1.113zm-5.41-23.515c0-1.797 1.484-3.418 4.297-3.75v7.637c-3.125-.801-4.297-2.11-4.297-3.887zm11.25 12.48c0 2.09-1.407 3.672-4.746 3.926v-8.008c3.632.86 4.746 2.051 4.746 4.082zm23.458 8.301c1.23 0 2.109-.84 2.109-2.187v-3.789h2.227c1.152 0 1.914-.743 1.914-1.836 0-1.094-.762-1.836-1.914-1.836h-2.227v-15.977c0-2.109-1.309-3.301-3.594-3.301-1.836 0-2.949.782-4.668 3.321-3.633 5.273-7.129 10.507-9.121 14.082-.742 1.289-.976 2.07-.976 3.066 0 1.504.996 2.481 2.558 2.481h11.602v3.789c0 1.347.879 2.187 2.09 2.187zm-2.051-9.59h-10.098v-.117c2.285-4.082 5.235-8.496 10.02-15.352h.078v15.469zm21.876 7.364c0 1.328-.879 2.226-2.129 2.226-1.27 0-2.149-.898-2.149-2.226V134.25h-.097l-4.864 3.398c-.429.313-.82.45-1.308.45-.957 0-1.641-.684-1.641-1.68 0-.723.274-1.23 1.094-1.797l5.859-4.16c1.192-.84 1.836-1.016 2.774-1.016 1.543 0 2.461.918 2.461 2.442v24.258zm8.321-2.911c-1.114 0-1.797.508-2.012 1.797l-1.25 7.207-.007.034a2.022 2.022 0 0 0-.052.455c-.019.937.645 1.543 1.641 1.543 1.016 0 1.543-.469 1.797-1.465l1.719-6.68c.097-.41.136-.742.136-1.094 0-1.113-.781-1.797-1.972-1.797zm27.286-4.531c0 5.801-4.258 9.824-10.352 9.824-4.238 0-7.871-2.07-9.219-5.175-.273-.606-.429-1.192-.429-1.895 0-1.191.742-1.914 1.933-1.914.957 0 1.524.391 1.973 1.406.918 2.481 2.93 3.906 5.801 3.906 3.535 0 6.015-2.5 6.015-6.035 0-3.457-2.5-5.898-6.015-5.898-1.856 0-3.516.723-4.61 1.855-1.211 1.25-1.621 1.465-2.656 1.465-1.387 0-2.109-.996-2.07-2.226v-.371l.937-10.86c.196-2.129 1.211-2.969 3.36-2.969h11.992c1.172 0 1.933.723 1.933 1.836 0 1.114-.761 1.856-1.933 1.856h-11.563l-.801 8.75h.079c1.23-1.758 3.554-2.793 6.347-2.793 5.43 0 9.278 3.828 9.278 9.238zm12.149 9.824c7.109 0 11.308-5.566 11.308-15.019 0-3.145-.507-5.781-1.484-7.949-1.855-4.063-5.273-6.289-9.609-6.289-5.957 0-10.293 4.101-10.293 9.765 0 5.41 4.043 9.277 9.355 9.277 3.633 0 6.602-1.835 7.735-4.589h.078v.312c-.118 6.777-2.461 10.86-6.973 10.86-2.52 0-3.945-.938-5.273-2.891-.723-.996-1.27-1.406-2.188-1.406-1.172 0-1.875.742-1.875 1.797 0 .507.117.976.43 1.562 1.133 2.246 4.238 4.57 8.789 4.57zm.215-13.769c-3.418 0-5.957-2.461-5.957-5.879 0-3.281 2.656-5.879 6.015-5.879 3.379 0 5.977 2.617 5.977 5.977 0 3.339-2.578 5.781-6.035 5.781zm25.274 11.387c0 1.328-.879 2.226-2.129 2.226-1.27 0-2.148-.898-2.148-2.226V134.25h-.098l-4.863 3.398c-.43.313-.821.45-1.309.45-.957 0-1.641-.684-1.641-1.68 0-.723.274-1.23 1.094-1.797l5.859-4.16c1.192-.84 1.836-1.016 2.774-1.016 1.543 0 2.461.918 2.461 2.442v24.258zm-111.201-46.511c0 2.814-1.644 4.54-4.142 4.54-2.507 0-4.142-1.735-4.142-4.54v-.017c0-2.789 1.652-4.515 4.134-4.515 2.49 0 4.15 1.718 4.15 4.515v.017zm-6.45 0c0 1.934.913 3.038 2.316 3.038 1.403 0 2.3-1.112 2.3-3.038v-.017c0-1.909-.914-3.013-2.316-3.013-1.378 0-2.3 1.104-2.3 3.013v.017zm10.999 4.54c.365 0 .706-.041.913-.074v-1.387c-.132.017-.29.034-.481.034-.755 0-1.154-.266-1.154-1.154v-4.898h1.635v-1.427h-1.635v-2.275h-1.834v2.275h-1.254v1.427h1.254v5.006c0 1.743.83 2.473 2.556 2.473zm7.604-1.552c-.506.938-1.519 1.536-2.673 1.536-1.743 0-2.913-1.071-2.913-2.64v-.017c0-1.519 1.178-2.448 3.245-2.573l2.374-.141v-.656c0-.963-.622-1.544-1.734-1.544-1.038 0-1.677.49-1.827 1.187l-.016.075h-1.694l.009-.091c.124-1.503 1.427-2.656 3.577-2.656 2.134 0 3.487 1.128 3.487 2.88V114h-1.802v-1.378h-.033zm-3.777-1.162v.017c0 .763.631 1.245 1.594 1.245 1.262 0 2.216-.855 2.216-1.993v-.68l-2.133.133c-1.079.066-1.677.539-1.677 1.278zm7.521 2.54h1.793v-11.978h-1.793V114zm11.614 0h-1.926l-3.146-8.732h1.909l2.192 6.981h.041l2.192-6.981h1.867L143.557 114zm6.641.158c1.154 0 2.166-.598 2.673-1.536h.033V114h1.801v-6.018c0-1.752-1.353-2.88-3.486-2.88-2.15 0-3.453 1.153-3.578 2.656l-.008.091h1.693l.017-.075c.149-.697.788-1.187 1.826-1.187 1.112 0 1.735.581 1.735 1.544v.656l-2.374.141c-2.067.125-3.246 1.054-3.246 2.573v.017c0 1.569 1.171 2.64 2.914 2.64zm-1.104-2.681v-.017c0-.739.597-1.212 1.677-1.278l2.133-.133v.68c0 1.138-.955 1.993-2.216 1.993-.963 0-1.594-.482-1.594-1.245zm9.314 2.523h-1.793v-11.978h1.793V114zm4.914.174c1.328 0 2.216-.606 2.673-1.486h.041V114h1.802v-8.732h-1.802v5.096c0 1.362-.813 2.266-2.075 2.266-1.245 0-1.859-.73-1.859-2.05v-5.312h-1.793v5.661c0 2.009 1.096 3.245 3.013 3.245zm13.863-2.648c-.282 1.387-1.627 2.648-3.744 2.648-2.565 0-4.117-1.751-4.117-4.507v-.008c0-2.731 1.577-4.557 4.026-4.557s3.951 1.759 3.951 4.382v.606h-6.184c.033 1.652.938 2.615 2.366 2.615 1.062 0 1.768-.548 1.992-1.204l.025-.066h1.701l-.016.091zm-1.66-2.706c-.15-1.51-.996-2.249-2.167-2.249-1.162 0-2.058.788-2.216 2.249h4.383zm11.464 5.354c2.216 0 3.652-1.759 3.652-4.54v-.009c0-2.78-1.444-4.523-3.636-4.523-1.236 0-2.232.622-2.755 1.651h-.042v-4.731h-1.793V114h1.793v-1.478h.042c.514 1.021 1.485 1.652 2.739 1.652zm-.473-1.544c-1.362 0-2.316-1.178-2.316-2.996v-.009c0-1.809.963-2.988 2.316-2.988 1.411 0 2.291 1.146 2.291 2.988v.009c0 1.859-.88 2.996-2.291 2.996zm9.579 1.777c-.647 1.809-1.56 2.507-3.27 2.507-.349 0-.723-.042-.938-.083v-1.403c.141.033.348.066.589.066.847 0 1.312-.224 1.61-1.071l.15-.415-3.179-8.74h1.942l2.2 7.105h.058l2.199-7.105h1.893l-3.254 9.139z" fill="#16161A"/><path fill-rule="evenodd" clip-rule="evenodd" d="M50.707 30.569h-1.596V20h1.48l5.434 7.69h.11V20h1.596v10.569h-1.48l-5.426-7.676h-.118v7.676zm10.889 0h-1.641V20h6.599v1.414h-4.959v3.347h4.541v1.384h-4.54v4.424zm9.335 0h1.64v-9.155h3.319V20h-8.284v1.414h3.325v9.155zM125 46H0v2h125v-2zm79.571 68h1.801v-7.305h1.743v-1.427h-1.776v-.897c0-.772.382-1.162 1.187-1.162.224 0 .448.017.623.041v-1.328a6.715 6.715 0 0 0-1.005-.074c-1.776 0-2.573.797-2.573 2.49v.93h-1.204v1.427h1.204V114zm6.915 0h-1.793v-11.978h1.793V114zm5.695.174c2.498 0 4.142-1.726 4.142-4.54v-.017c0-2.797-1.66-4.515-4.151-4.515-2.482 0-4.133 1.726-4.133 4.515v.017c0 2.805 1.635 4.54 4.142 4.54zm.008-1.502c-1.403 0-2.316-1.104-2.316-3.038v-.017c0-1.909.921-3.013 2.299-3.013 1.403 0 2.316 1.104 2.316 3.013v.017c0 1.926-.896 3.038-2.299 3.038zm13.514-3.038c0 2.814-1.643 4.54-4.142 4.54-2.507 0-4.142-1.735-4.142-4.54v-.017c0-2.789 1.652-4.515 4.134-4.515 2.49 0 4.15 1.718 4.15 4.515v.017zm-6.45 0c0 1.934.913 3.038 2.316 3.038 1.403 0 2.3-1.112 2.3-3.038v-.017c0-1.909-.913-3.013-2.316-3.013-1.378 0-2.3 1.104-2.3 3.013v.017zm7.936 4.366h1.793v-5.205c0-1.303.714-2.058 1.868-2.058.349 0 .664.041.805.099v-1.668l-.011-.002c-.142-.025-.361-.064-.611-.064-.997 0-1.727.639-2.009 1.66h-.042v-1.494h-1.793V114zm11.025 2.905h-1.793v-11.637h1.793v1.502h.041c.523-1.038 1.486-1.668 2.731-1.668 2.225 0 3.652 1.743 3.652 4.532v.008c0 2.781-1.436 4.532-3.627 4.532-1.237 0-2.241-.631-2.756-1.643h-.041v4.374zm-.009-7.263c0 1.81.963 2.988 2.316 2.988 1.411 0 2.291-1.145 2.291-2.988v-.008c0-1.86-.888-2.997-2.291-2.997-1.361 0-2.316 1.179-2.316 2.997v.008zm7.928 4.358h1.793v-5.205c0-1.303.714-2.058 1.868-2.058.348 0 .664.041.805.099v-1.668l-.01-.002a3.438 3.438 0 0 0-.613-.064c-.996 0-1.726.639-2.009 1.66h-.041v-1.494h-1.793V114zm7.695-11.106c0 .564-.456 1.029-1.046 1.029a1.038 1.038 0 0 1-1.046-1.029 1.04 1.04 0 0 1 1.046-1.038c.59 0 1.046.465 1.046 1.038zM258.679 114h-1.793v-8.732h1.793V114zm5.703.174c2.1 0 3.561-1.344 3.752-3.096l.008-.058h-1.727l-.008.066c-.216.947-.921 1.586-2.025 1.586-1.387 0-2.308-1.121-2.308-3.03v-.008c0-1.868.905-3.03 2.299-3.03 1.171 0 1.835.722 2.026 1.577l.016.067h1.71l-.008-.059c-.149-1.643-1.511-3.087-3.76-3.087-2.49 0-4.117 1.751-4.117 4.515v.008c0 2.798 1.593 4.549 4.142 4.549zm12.601-2.648c-.283 1.387-1.627 2.648-3.744 2.648-2.565 0-4.117-1.751-4.117-4.507v-.008c0-2.731 1.577-4.557 4.026-4.557 2.448 0 3.951 1.759 3.951 4.382v.606h-6.184c.033 1.652.938 2.615 2.366 2.615 1.062 0 1.768-.548 1.992-1.204l.025-.066h1.701l-.016.091zm-1.66-2.706c-.15-1.51-.997-2.249-2.167-2.249-1.162 0-2.059.788-2.216 2.249h4.383z" fill="#2962EF"/></g><defs><clipPath id="a"><path fill="#fff" d="M0 0h373v210H0z"/></clipPath></defs></svg>